<?xml version="1.0"?>
<svg xmlns="http://www.w3.org/2000/svg" viewBox="0 0 24 24">
    <path d="M 10 2 L 10 3.84375 C 9.4030128 4.1157624 9 4.4231322 9 5 C 9 5.2291667 9.070855 5.3944951 9.1875 5.53125 C 7.5365699 5.1936393 5.9456036 5 5 5 C 4.4333333 5 3.8491381 5.1326473 3.3125 5.375 C 2.7758619 5.6173527 2.1418265 5.9927912 2 6.84375 L 2 6.875 L 2 6.9375 C 1.9593023 7.5479655 2.1747549 8.1399374 2.5 8.5625 C 2.8252451 8.9850626 3.2410092 9.2652006 3.65625 9.46875 C 4.4761995 9.870686 5.3058428 9.9966599 5.96875 10 C 5.9772648 10.000043 5.9915455 10 6 10 C 7.2500328 10.051197 8.377805 9.7931181 9.28125 9.53125 C 9.6198788 9.4330967 9.6932851 9.426608 9.96875 9.34375 C 10.079394 9.4286316 10.18747 9.4921093 10.3125 9.5625 L 6.625 11.0625 L 6.125 11.28125 L 6.03125 11.8125 L 5.09375 16.46875 L 2.28125 19.28125 L 3.71875 20.71875 L 6.71875 17.71875 L 6.90625 17.5 L 6.96875 17.1875 L 7.84375 12.75 L 9.71875 12 L 12 13.5 L 14.3125 12.03125 L 16.15625 12.75 L 17.03125 17.1875 L 17.09375 17.5 L 17.28125 17.71875 L 20.28125 20.71875 L 21.71875 19.28125 L 18.90625 16.46875 L 17.96875 11.8125 L 17.875 11.28125 L 17.375 11.0625 L 13.6875 9.5625 C 13.81253 9.4921093 13.920606 9.4286316 14.03125 9.34375 C 14.306715 9.4266079 14.380121 9.4330967 14.71875 9.53125 C 15.622195 9.7931181 16.749967 10.051197 18 10 C 18.0085 10 18.02274 10.000043 18.03125 10 C 18.694157 9.99666 19.5238 9.870686 20.34375 9.46875 C 20.758991 9.2652006 21.174755 8.9850626 21.5 8.5625 C 21.825245 8.1399374 22.040698 7.5479655 22 6.9375 L 22 6.875 L 22 6.84375 C 21.858174 5.9927912 21.224138 5.6173527 20.6875 5.375 C 20.150862 5.1326473 19.566667 5 19 5 C 18.054397 5 16.46343 5.1936393 14.8125 5.53125 C 14.923177 5.3944951 15 5.2291667 15 5 C 15 4.3799095 14.594095 4.0677002 14 3.8125 L 14 2 L 13 2 L 13 3.4375 C 12.674121 3.3140691 12.343966 3.1834483 12 3 C 11.653415 3.1732923 11.315619 3.3126199 11 3.4375 L 11 2 L 10 2 z M 5 7 C 5.5545905 7 7.2604489 7.3543068 8.71875 7.625 C 7.9056288 7.8606873 6.9671583 8.0425413 6.03125 8 L 6 8 C 5.6666667 8 4.9757685 7.8741512 4.53125 7.65625 C 4.3089908 7.5472994 4.1653799 7.4368124 4.09375 7.34375 C 4.0627104 7.303423 4.0704955 7.2595485 4.0625 7.21875 C 4.0847505 7.2108811 4.0998208 7.2129841 4.15625 7.1875 C 4.3946119 7.0798527 4.7666667 7 5 7 z M 19 7 C 19.233333 7 19.605388 7.079853 19.84375 7.1875 C 19.900179 7.2129842 19.91525 7.2108811 19.9375 7.21875 C 19.929505 7.2595485 19.937288 7.303423 19.90625 7.34375 C 19.83462 7.436812 19.691009 7.5472994 19.46875 7.65625 C 19.024232 7.8741512 18.333333 8 18 8 L 17.96875 8 C 17.032842 8.0425413 16.094371 7.8606873 15.28125 7.625 C 16.739551 7.3543068 18.44541 7 19 7 z M 9.09375 13.09375 C 9.09375 13.39375 9 13.7 9 14 L 9 15.5 L 12 17.5 L 15 15.5 L 15 14 C 15 13.7 15.00625 13.39375 14.90625 13.09375 L 12 15 L 9.09375 13.09375 z M 9 17 C 9 19.5 12 22.1 12 22 C 12 22 15 19.5 15 17 L 12 19 L 9 17 z"/>
</svg>
